<mxfile host="app.diagrams.net" modified="2022-01-17T01:37:54.842Z" agent="5.0 (Windows NT 10.0; Win64; x64) AppleWebKit/537.36 (KHTML, like Gecko) Chrome/97.0.4692.71 Safari/537.36 Edg/97.0.1072.55" etag="VviquqNwqAXj2HL1_F6q" version="15.9.1" type="github">
  <diagram id="c3kXk2Dq7NYn8jHAryyM" name="Page-1">
    <mxGraphModel dx="1828" dy="535" grid="1" gridSize="10" guides="1" tooltips="1" connect="1" arrows="1" fold="1" page="1" pageScale="1" pageWidth="850" pageHeight="1100" math="0" shadow="0">
      <root>
        <mxCell id="0" />
        <mxCell id="1" parent="0" />
        <mxCell id="4eBxySrEGaGqm6OXpY7--2" value="" style="shape=image;imageAspect=0;aspect=fixed;verticalLabelPosition=bottom;verticalAlign=top;image=https://static-www.elastic.co/v3/assets/bltefdd0b53724fa2ce/blt5ebe80fb665aef6b/5ea8c8f26b62d4563b6ecec2/brand-elasticsearch-220x130.svg;" vertex="1" parent="1">
          <mxGeometry x="-243.08" y="710" width="203.08" height="120" as="geometry" />
        </mxCell>
        <mxCell id="4eBxySrEGaGqm6OXpY7--3" value="" style="shape=image;imageAspect=0;aspect=fixed;verticalLabelPosition=bottom;verticalAlign=top;image=https://th.bing.com/th/id/OIP.aHjkb6FtjqtO-R5vUT0MVgHaHa?pid=ImgDet&amp;rs=1;" vertex="1" parent="1">
          <mxGeometry x="-210" y="350" width="170" height="170" as="geometry" />
        </mxCell>
        <mxCell id="4eBxySrEGaGqm6OXpY7--4" value="&lt;b&gt;&lt;font style=&quot;font-size: 24px&quot;&gt;Application&lt;/font&gt;&lt;/b&gt;" style="dashed=0;outlineConnect=0;html=1;align=center;labelPosition=center;verticalLabelPosition=bottom;verticalAlign=top;shape=mxgraph.weblogos.java" vertex="1" parent="1">
          <mxGeometry x="-750" y="520" width="74.4" height="85" as="geometry" />
        </mxCell>
        <mxCell id="4eBxySrEGaGqm6OXpY7--6" value="" style="endArrow=classic;html=1;rounded=0;fontSize=24;" edge="1" parent="1" source="4eBxySrEGaGqm6OXpY7--4" target="4eBxySrEGaGqm6OXpY7--3">
          <mxGeometry width="50" height="50" relative="1" as="geometry">
            <mxPoint x="-500" y="620" as="sourcePoint" />
            <mxPoint x="-450" y="570" as="targetPoint" />
            <Array as="points" />
          </mxGeometry>
        </mxCell>
        <mxCell id="4eBxySrEGaGqm6OXpY7--9" value="Write operation" style="edgeLabel;html=1;align=center;verticalAlign=middle;resizable=0;points=[];fontSize=24;" vertex="1" connectable="0" parent="4eBxySrEGaGqm6OXpY7--6">
          <mxGeometry x="-0.2033" relative="1" as="geometry">
            <mxPoint x="52" y="-15" as="offset" />
          </mxGeometry>
        </mxCell>
        <mxCell id="4eBxySrEGaGqm6OXpY7--7" value="" style="endArrow=classic;html=1;rounded=0;fontSize=24;" edge="1" parent="1" source="4eBxySrEGaGqm6OXpY7--4" target="4eBxySrEGaGqm6OXpY7--2">
          <mxGeometry width="50" height="50" relative="1" as="geometry">
            <mxPoint x="-500" y="620" as="sourcePoint" />
            <mxPoint x="-450" y="570" as="targetPoint" />
          </mxGeometry>
        </mxCell>
        <mxCell id="4eBxySrEGaGqm6OXpY7--11" value="Read opetation" style="edgeLabel;html=1;align=center;verticalAlign=middle;resizable=0;points=[];fontSize=24;" vertex="1" connectable="0" parent="4eBxySrEGaGqm6OXpY7--7">
          <mxGeometry x="-0.2308" y="2" relative="1" as="geometry">
            <mxPoint x="58" y="27" as="offset" />
          </mxGeometry>
        </mxCell>
        <mxCell id="4eBxySrEGaGqm6OXpY7--12" value="" style="endArrow=classic;html=1;rounded=0;fontSize=24;entryX=0.581;entryY=0.083;entryDx=0;entryDy=0;entryPerimeter=0;" edge="1" parent="1" source="4eBxySrEGaGqm6OXpY7--3" target="4eBxySrEGaGqm6OXpY7--2">
          <mxGeometry width="50" height="50" relative="1" as="geometry">
            <mxPoint x="-280" y="620" as="sourcePoint" />
            <mxPoint x="-230" y="570" as="targetPoint" />
          </mxGeometry>
        </mxCell>
        <mxCell id="4eBxySrEGaGqm6OXpY7--13" value="Sync" style="edgeLabel;html=1;align=center;verticalAlign=middle;resizable=0;points=[];fontSize=24;" vertex="1" connectable="0" parent="4eBxySrEGaGqm6OXpY7--12">
          <mxGeometry x="-0.4332" y="2" relative="1" as="geometry">
            <mxPoint as="offset" />
          </mxGeometry>
        </mxCell>
      </root>
    </mxGraphModel>
  </diagram>
</mxfile>
